<svg xmlns="http://www.w3.org/2000/svg" viewBox="0 0 64 64" fill="none">
  <defs>
    <linearGradient id="brand-gradient" x1="12" y1="8" x2="52" y2="56" gradientUnits="userSpaceOnUse">
      <stop stop-color="#004E6C" />
      <stop offset="1" stop-color="#37A6D1" />
    </linearGradient>
  </defs>
  <rect width="64" height="64" rx="18" fill="url(#brand-gradient)" />
  <path
    d="M14 22.5c1.2 1 2.4 2 5 2 5 0 5-4 10-4 5.2 0 4.8 4 10 4 5 0 5-4 10-4 2.6 0 3.8 1 5 2"
    stroke="#fff"
    stroke-linecap="round"
    stroke-linejoin="round"
    stroke-width="4"
  />
  <path
    d="M14 32c1.2 1 2.4 2 5 2 5 0 5-4 10-4 5.2 0 4.8 4 10 4 5 0 5-4 10-4 2.6 0 3.8 1 5 2"
    stroke="#fff"
    stroke-linecap="round"
    stroke-linejoin="round"
    stroke-width="4"
  />
  <path
    d="M14 41.5c1.2 1 2.4 2 5 2 5 0 5-4 10-4 5.2 0 4.8 4 10 4 5 0 5-4 10-4 2.6 0 3.8 1 5 2"
    stroke="#fff"
    stroke-linecap="round"
    stroke-linejoin="round"
    stroke-width="4"
  />
</svg>
